<svg width="55" height="96" viewBox="0 0 55 96" fill="none" xmlns="http://www.w3.org/2000/svg">
<path d="M21 95.858C14.701 91.593 8.91379 88.2598 3.9402 84.0474C1.70453 81.8458 0.390763 78.8757 0.265781 75.7405C-0.0841639 59.7918 -0.0885382 43.8431 0.252658 27.8944C0.403763 24.9677 1.67197 22.2105 3.79585 20.1912C8.92691 15.9 14.701 12.3962 21 8V95.858Z" fill="#67E8F9"/>
<path d="M34.0203 31.2828V3.00796C34.1628 1.97696 34.4294 0.966978 34.8144 0C35.839 0.215855 36.836 0.546826 37.7863 0.986611C41.5282 3.30876 45.234 5.70309 48.9157 8.13353C50.7994 9.3116 52.3443 10.9592 53.399 12.9145C54.4537 14.8699 54.9818 17.0659 54.9317 19.287C55.0038 27.3003 55.0399 35.3255 54.9317 43.3507C54.9919 45.6726 54.4246 47.9678 53.2896 49.9943C52.1546 52.0208 50.4939 53.7036 48.4826 54.8652C44.7286 57.1753 41.095 59.6779 37.3772 62.0843C34.8385 63.7086 34.0203 63.2875 34.0083 60.2555C33.9842 50.5337 34.0203 40.9083 34.0203 31.2828Z" fill="#6EE7B7"/>
</svg>
